<?xml version="1.0" standalone="no"?>
<!DOCTYPE svg PUBLIC "-//W3C//DTD SVG 20010904//EN"
 "http://www.w3.org/TR/2001/REC-SVG-20010904/DTD/svg10.dtd">
<svg version="1.0" xmlns="http://www.w3.org/2000/svg"
 width="300.000000pt" height="450.000000pt" viewBox="0 0 600.000000 400.000000"
 preserveAspectRatio="xMidYMid meet">
<g transform="translate(0.000000,400.000000) scale(0.100000,-0.100000)"
fill="#000000" stroke="none">
<path d="M1445 2634 c-51 -13 -114 -40 -151 -65 -47 -32 -101 -107 -109 -153
-6 -31 -7 -31 -61 -28 -101 7 -184 -57 -200 -154 -6 -38 -9 -41 -52 -53 -32
-8 -59 -25 -87 -54 -89 -93 -86 -229 7 -324 78 -79 66 -78 648 -78 l515 0 57
28 c165 81 233 268 152 416 -42 77 -123 131 -198 131 -31 0 -36 4 -42 28 -18
78 -26 101 -52 143 -35 55 -92 101 -166 135 -44 20 -76 26 -149 29 -50 2 -101
2 -112 -1z"/>
<path d="M3207 2388 c-47 -13 -109 -82 -132 -146 -26 -75 -31 -193 -10 -248
14 -37 25 -50 59 -65 48 -22 59 -23 126 -8 50 11 50 11 50 50 0 37 -1 38 -26
29 -41 -16 -82 -12 -105 11 -19 19 -21 30 -17 103 3 61 11 95 29 132 31 64 64
82 119 68 40 -11 41 -11 56 18 18 36 13 45 -34 58 -44 12 -64 11 -115 -2z"/>
<path d="M3406 2378 c-3 -13 -19 -111 -36 -218 -17 -107 -33 -205 -36 -218 -4
-22 -2 -23 42 -20 l47 3 38 230 c21 127 39 233 39 238 0 4 -20 7 -45 7 -38 0
-45 -3 -49 -22z"/>
<path d="M4357 2393 c-3 -5 -8 -28 -11 -53 -15 -98 -16 -101 -36 -90 -58 31
-130 -6 -166 -85 -65 -142 -25 -272 77 -250 15 4 33 13 40 21 15 18 29 18 29
-1 0 -11 11 -15 39 -15 46 0 38 -25 81 245 16 105 32 200 35 213 5 20 2 22
-39 22 -25 0 -47 -3 -49 -7z m-49 -212 c11 -6 11 -23 -1 -91 -15 -88 -33 -114
-72 -108 -16 2 -21 12 -23 48 -8 108 41 186 96 151z"/>
<path d="M2346 2378 c-7 -21 -96 -438 -96 -448 0 -6 19 -10 43 -10 l44 0 29
160 c16 88 31 160 35 160 3 0 11 -51 18 -112 7 -62 18 -119 23 -125 6 -7 25
-13 43 -13 18 0 37 6 42 13 5 6 31 63 58 125 49 114 65 140 59 99 -2 -12 -11
-74 -19 -137 -9 -63 -18 -127 -21 -142 -5 -27 -4 -28 40 -28 55 0 49 -19 76
235 11 105 23 200 25 213 5 22 4 23 -56 20 l-62 -3 -43 -95 c-24 -52 -53 -117
-65 -145 l-22 -50 -16 145 -16 145 -58 3 c-40 2 -58 -1 -61 -10z"/>
<path d="M4635 2323 c-35 -10 -73 -42 -83 -72 -13 -36 -8 -41 35 -41 22 0 33
5 33 15 0 8 11 22 25 31 21 14 31 15 50 6 14 -7 25 -19 25 -27 0 -50 -43 -100
-196 -232 -12 -10 -24 -33 -28 -50 l-5 -33 129 0 c71 0 131 3 133 8 2 4 7 19
11 34 l6 27 -80 3 -80 3 79 68 c92 79 127 136 117 192 -4 22 -17 42 -32 52
-26 17 -104 26 -139 16z"/>
<path d="M5010 2312 c-50 -27 -77 -82 -95 -196 -25 -152 -1 -196 105 -196 69
0 118 25 142 72 38 73 61 246 38 289 -26 48 -127 64 -190 31z m104 -58 c19
-19 19 -9 1 -123 -20 -123 -35 -151 -81 -151 -43 0 -49 23 -35 123 7 51 18
103 23 117 17 48 62 64 92 34z"/>
<path d="M3583 2240 c-98 -50 -136 -255 -56 -307 16 -11 46 -17 77 -17 103 0
164 72 174 204 4 63 3 69 -25 100 -39 44 -107 52 -170 20z m103 -76 c8 -32
-11 -130 -32 -161 -11 -18 -23 -23 -42 -21 -27 3 -27 4 -27 79 1 92 19 129 65
129 23 0 31 -5 36 -26z"/>
<path d="M2760 2237 c0 -19 29 -247 36 -279 3 -17 12 -28 22 -28 28 0 -28 -49
-64 -56 -23 -4 -34 -13 -38 -30 -9 -36 1 -45 42 -38 102 18 151 84 261 347
l40 97 -48 0 -48 0 -27 -77 c-14 -43 -34 -100 -44 -127 l-19 -48 -6 47 c-4 26
-7 83 -7 126 l0 79 -50 0 c-34 0 -50 -4 -50 -13z"/>
<path d="M3835 2228 c-14 -63 -35 -207 -35 -239 0 -65 65 -95 133 -61 30 16
37 17 37 5 0 -11 11 -13 42 -11 l42 3 23 135 c12 74 24 147 27 163 5 26 4 27
-42 27 l-48 0 -19 -121 c-15 -96 -23 -123 -39 -135 -26 -18 -52 -18 -59 1 -5
12 12 144 29 228 5 26 4 27 -40 27 -39 0 -46 -3 -51 -22z"/>
<path d="M4803 1998 c-18 -24 -23 -51 -12 -64 32 -39 103 11 79 55 -12 23 -52
28 -67 9z"/>
<path d="M3740 1844 c-25 -2 -110 -8 -190 -14 -80 -6 -253 -23 -385 -37 -411
-46 -757 -36 -879 23 l-31 15 25 -20 c38 -31 137 -68 236 -88 72 -14 137 -18
339 -17 229 0 273 3 525 37 393 52 590 67 970 75 232 5 312 9 260 14 -86 8
-802 18 -870 12z"/>
</g>
</svg>
